<?xml version="1.0" encoding="UTF-8"?>
<svg id="_圖層_1" data-name="圖層_1" xmlns="http://www.w3.org/2000/svg" version="1.1" viewBox="0 0 666.7 666.7">
  <!-- Generator: Adobe Illustrator 30.5.1, SVG Export Plug-In . SVG Version: 2.1.4 Build 3)  -->
  <defs>
    <style>
      .st0 {
        fill: none;
        stroke: #fff;
        stroke-linecap: round;
        stroke-linejoin: round;
        stroke-width: 66.7px;
      }
    </style>
  </defs>
  <path class="st0" d="M433.3,333.3c0,55.2-44.8,100-100,100s-100-44.8-100-100,44.8-100,100-100,100,44.8,100,100Z"/>
  <path class="st0" d="M363.5,35.3c-6.9-2-14.6-2-30.2-2s-23.3,0-30.2,2c-10,2.9-18.9,8.9-25.4,17.2-4.4,5.6-7.3,12.8-13.1,27.3-8.3,20.7-31.3,31.4-52.5,24.3l-19-6.3c-13.5-4.5-20.2-6.7-26.9-7.1-9.7-.6-19.4,1.7-27.8,6.6-5.7,3.3-10.8,8.3-20.8,18.4-10.7,10.7-16,16-19.4,22.1-5,9-7.1,19.2-6,29.5.7,6.9,3.5,14,9.1,28,8.8,22,.3,47.1-20,59.3l-9.3,5.6c-14.2,8.5-21.2,12.7-26.4,18.6-4.6,5.2-8,11.2-10.1,17.8-2.4,7.4-2.4,15.8-2.4,32.4s0,29.6,3.2,38.1c2.8,7.5,7.3,14.2,13.2,19.5,6.7,6.1,15.8,9.7,33.9,17,18.6,7.4,28.1,28,21.8,47l-7.2,21.5c-5,14.9-7.5,22.4-7.7,29.7-.3,8.8,1.8,17.5,6,25.3,3.5,6.5,9,12,20.1,23.1,11.1,11.1,16.7,16.7,23.1,20.1,7.8,4.2,16.5,6.2,25.3,6,7.3-.2,14.8-2.7,29.7-7.7l17.6-5.9c21.2-7.1,44.2,3.6,52.5,24.3,5.8,14.4,8.6,21.6,13.1,27.3,6.4,8.2,15.3,14.2,25.4,17.2,6.9,2,14.6,2,30.2,2s23.3,0,30.2-2c10-2.9,18.9-8.9,25.4-17.2,4.4-5.6,7.3-12.8,13.1-27.3,8.3-20.7,31.3-31.4,52.5-24.3l17.6,5.9c14.9,5,22.4,7.4,29.7,7.7,8.8.3,17.5-1.8,25.3-6,6.4-3.5,12-9,23.1-20.1,11.1-11.1,16.7-16.7,20.1-23.1,4.2-7.8,6.2-16.5,6-25.3-.2-7.3-2.7-14.8-7.7-29.7l-7.2-21.5c-6.3-19,3.2-39.6,21.8-47,18.2-7.3,27.2-10.9,33.9-17,5.9-5.4,10.4-12.1,13.2-19.5,3.2-8.5,3.2-18.3,3.2-38.1s0-25-2.4-32.4c-2.1-6.6-5.5-12.6-10.1-17.8-5.1-5.8-12.2-10.1-26.4-18.6l-9.3-5.6c-20.3-12.2-28.8-37.3-20-59.3,5.6-14,8.4-21.1,9.1-28,1.1-10.2-1.1-20.5-6-29.5-3.4-6.1-8.7-11.4-19.4-22.1-10.1-10.1-15.1-15.1-20.8-18.4-8.4-4.9-18.1-7.1-27.8-6.6-6.6.4-13.4,2.6-26.9,7.1l-19,6.3c-21.2,7.1-44.2-3.6-52.5-24.3-5.8-14.4-8.7-21.6-13.1-27.3-6.4-8.2-15.3-14.2-25.4-17.2Z"/>
</svg>