<svg xmlns="http://www.w3.org/2000/svg" width="160" height="160" viewBox="0 0 160 160" role="img" aria-labelledby="title desc">
  <title id="title">KOL Avatar Nene</title>
  <desc id="desc">Illustrated female KOL avatar with warm tones and simple modern style.</desc>
  <defs>
    <linearGradient id="bg" x1="0" y1="0" x2="1" y2="1">
      <stop offset="0%" stop-color="#f6efe5"/>
      <stop offset="100%" stop-color="#e9d8c5"/>
    </linearGradient>
    <linearGradient id="hair" x1="0" y1="0" x2="0" y2="1">
      <stop offset="0%" stop-color="#3a2a24"/>
      <stop offset="100%" stop-color="#241713"/>
    </linearGradient>
  </defs>

  <rect width="160" height="160" fill="url(#bg)"/>
  <circle cx="80" cy="76" r="42" fill="#f3d7c1"/>

  <path d="M40 74c0-30 20-47 40-47s40 17 40 47v17c0 20-16 36-40 36S40 111 40 91z" fill="url(#hair)"/>
  <path d="M51 65c2-17 14-30 29-33 13 10 22 17 35 18-6-16-18-25-35-25-21 0-38 15-41 40z" fill="#4c332b"/>

  <ellipse cx="65" cy="79" rx="4" ry="5" fill="#33231f"/>
  <ellipse cx="95" cy="79" rx="4" ry="5" fill="#33231f"/>
  <path d="M69 97c4 4 9 6 15 6s11-2 15-6" fill="none" stroke="#b45a5a" stroke-width="3" stroke-linecap="round"/>

  <path d="M30 160c4-30 22-46 50-46s46 16 50 46" fill="#6ea7b0"/>
  <path d="M80 115l13 10-13 11-13-11z" fill="#e7f3f7"/>
</svg>
