<?xml version="1.0" encoding="UTF-8"?>
<svg id="LOGO" xmlns="http://www.w3.org/2000/svg" version="1.1" xmlns:xlink="http://www.w3.org/1999/xlink" viewBox="0 0 130.5 118.6">
  <!-- Generator: Adobe Illustrator 30.5.1, SVG Export Plug-In . SVG Version: 2.1.4 Build 3)  -->
  <defs>
    <style>
      .st0 {
        fill: url(#_未命名漸層_33);
      }

      .st0, .st1, .st2, .st3, .st4, .st5, .st6, .st7, .st8, .st9, .st10, .st11, .st12, .st13, .st14, .st15, .st16, .st17, .st18, .st19, .st20, .st21, .st22, .st23, .st24, .st25, .st26, .st27, .st28, .st29, .st30, .st31 {
        fill-rule: evenodd;
      }

      .st1 {
        fill: url(#_未命名漸層_3331);
      }

      .st32 {
        fill: #607d33;
      }

      .st2 {
        fill: url(#_未命名漸層_3311);
      }

      .st33 {
        fill: url(#_未命名漸層_34);
      }

      .st34 {
        fill: #fff;
      }

      .st3 {
        fill: url(#_未命名漸層_3323);
      }

      .st4 {
        fill: url(#_未命名漸層_331);
      }

      .st5 {
        fill: url(#_未命名漸層_3319);
      }

      .st35 {
        fill: none;
      }

      .st6 {
        fill: url(#_未命名漸層_3330);
      }

      .st7 {
        fill: url(#_未命名漸層_3322);
      }

      .st8 {
        fill: url(#_未命名漸層_3312);
      }

      .st9 {
        fill: url(#_未命名漸層_3324);
      }

      .st10 {
        fill: url(#_未命名漸層_3310);
      }

      .st11 {
        fill: url(#_未命名漸層_335);
      }

      .st36 {
        fill: url(#_未命名漸層_35);
      }

      .st37 {
        opacity: .6;
      }

      .st12 {
        fill: url(#_未命名漸層_339);
      }

      .st13 {
        fill: url(#_未命名漸層_3321);
      }

      .st14 {
        fill: url(#_未命名漸層_3315);
      }

      .st15 {
        fill: url(#_未命名漸層_336);
      }

      .st16 {
        fill: url(#_未命名漸層_3320);
      }

      .st17 {
        fill: url(#_未命名漸層_3328);
      }

      .st18 {
        fill: url(#_未命名漸層_3326);
      }

      .st19 {
        fill: url(#_未命名漸層_338);
      }

      .st20 {
        fill: url(#_未命名漸層_332);
      }

      .st21 {
        fill: url(#_未命名漸層_3317);
      }

      .st22 {
        fill: url(#_未命名漸層_3313);
      }

      .st23 {
        fill: url(#_未命名漸層_3327);
      }

      .st38 {
        fill: #7ea42b;
      }

      .st39 {
        fill: #7ea52b;
      }

      .st24 {
        fill: url(#_未命名漸層_334);
      }

      .st40 {
        opacity: .2;
      }

      .st25 {
        fill: url(#_未命名漸層_3325);
      }

      .st41 {
        fill: #5e7c33;
      }

      .st26 {
        fill: url(#_未命名漸層_333);
      }

      .st27 {
        fill: url(#_未命名漸層_3314);
      }

      .st28 {
        fill: url(#_未命名漸層_3318);
      }

      .st29 {
        fill: url(#_未命名漸層_3329);
      }

      .st30 {
        fill: url(#_未命名漸層_3316);
      }

      .st31 {
        fill: url(#_未命名漸層_337);
      }
    </style>
    <radialGradient id="_未命名漸層_33" data-name="未命名漸層 33" cx="74.8" cy="769" fx="74.8" fy="769" r="58" gradientTransform="translate(0 -672)" gradientUnits="userSpaceOnUse">
      <stop offset="0" stop-color="#000" stop-opacity=".1"/>
      <stop offset="1" stop-color="#000" stop-opacity="0"/>
    </radialGradient>
    <radialGradient id="_未命名漸層_331" data-name="未命名漸層 33" cx="74.8" fx="74.8" r="58" xlink:href="#_未命名漸層_33"/>
    <radialGradient id="_未命名漸層_332" data-name="未命名漸層 33" cx="74.8" cy="769" fx="74.8" fy="769" r="58" xlink:href="#_未命名漸層_33"/>
    <radialGradient id="_未命名漸層_333" data-name="未命名漸層 33" cx="74.8" cy="769" fx="74.8" fy="769" r="58" xlink:href="#_未命名漸層_33"/>
    <radialGradient id="_未命名漸層_334" data-name="未命名漸層 33" cy="769" fy="769" r="58" xlink:href="#_未命名漸層_33"/>
    <radialGradient id="_未命名漸層_335" data-name="未命名漸層 33" cy="769" fy="769" r="58" xlink:href="#_未命名漸層_33"/>
    <radialGradient id="_未命名漸層_336" data-name="未命名漸層 33" r="58" xlink:href="#_未命名漸層_33"/>
    <radialGradient id="_未命名漸層_337" data-name="未命名漸層 33" r="58" xlink:href="#_未命名漸層_33"/>
    <radialGradient id="_未命名漸層_338" data-name="未命名漸層 33" cy="769" fy="769" r="58" xlink:href="#_未命名漸層_33"/>
    <radialGradient id="_未命名漸層_339" data-name="未命名漸層 33" r="58" xlink:href="#_未命名漸層_33"/>
    <radialGradient id="_未命名漸層_3310" data-name="未命名漸層 33" cx="74.8" fx="74.8" r="58" xlink:href="#_未命名漸層_33"/>
    <radialGradient id="_未命名漸層_3311" data-name="未命名漸層 33" cx="74.8" fx="74.8" r="58" xlink:href="#_未命名漸層_33"/>
    <radialGradient id="_未命名漸層_3312" data-name="未命名漸層 33" cx="74.8" fx="74.8" r="58" xlink:href="#_未命名漸層_33"/>
    <radialGradient id="_未命名漸層_3313" data-name="未命名漸層 33" r="58" xlink:href="#_未命名漸層_33"/>
    <radialGradient id="_未命名漸層_3314" data-name="未命名漸層 33" r="58" xlink:href="#_未命名漸層_33"/>
    <radialGradient id="_未命名漸層_3315" data-name="未命名漸層 33" cx="74.8" fx="74.8" r="58" xlink:href="#_未命名漸層_33"/>
    <radialGradient id="_未命名漸層_3316" data-name="未命名漸層 33" r="58" xlink:href="#_未命名漸層_33"/>
    <radialGradient id="_未命名漸層_3317" data-name="未命名漸層 33" r="58" xlink:href="#_未命名漸層_33"/>
    <radialGradient id="_未命名漸層_3318" data-name="未命名漸層 33" r="58" xlink:href="#_未命名漸層_33"/>
    <radialGradient id="_未命名漸層_3319" data-name="未命名漸層 33" r="58" xlink:href="#_未命名漸層_33"/>
    <radialGradient id="_未命名漸層_3320" data-name="未命名漸層 33" cx="74.8" fx="74.8" r="58" xlink:href="#_未命名漸層_33"/>
    <radialGradient id="_未命名漸層_3321" data-name="未命名漸層 33" cx="74.8" fx="74.8" r="58" xlink:href="#_未命名漸層_33"/>
    <radialGradient id="_未命名漸層_3322" data-name="未命名漸層 33" cx="74.8" fx="74.8" r="58" xlink:href="#_未命名漸層_33"/>
    <radialGradient id="_未命名漸層_3323" data-name="未命名漸層 33" r="58" xlink:href="#_未命名漸層_33"/>
    <radialGradient id="_未命名漸層_3324" data-name="未命名漸層 33" r="58" xlink:href="#_未命名漸層_33"/>
    <radialGradient id="_未命名漸層_3325" data-name="未命名漸層 33" r="58" xlink:href="#_未命名漸層_33"/>
    <radialGradient id="_未命名漸層_3326" data-name="未命名漸層 33" r="58" xlink:href="#_未命名漸層_33"/>
    <radialGradient id="_未命名漸層_3327" data-name="未命名漸層 33" r="58" xlink:href="#_未命名漸層_33"/>
    <radialGradient id="_未命名漸層_3328" data-name="未命名漸層 33" cx="74.8" fx="74.8" r="58" xlink:href="#_未命名漸層_33"/>
    <radialGradient id="_未命名漸層_3329" data-name="未命名漸層 33" cx="74.8" fx="74.8" r="58" xlink:href="#_未命名漸層_33"/>
    <radialGradient id="_未命名漸層_3330" data-name="未命名漸層 33" cx="74.8" fx="74.8" r="58" xlink:href="#_未命名漸層_33"/>
    <radialGradient id="_未命名漸層_3331" data-name="未命名漸層 33" r="58" xlink:href="#_未命名漸層_33"/>
    <linearGradient id="_未命名漸層_34" data-name="未命名漸層 34" x1="96.4" y1="725.1" x2="71.7" y2="749.9" gradientTransform="translate(0 -672)" gradientUnits="userSpaceOnUse">
      <stop offset=".6" stop-color="#eeb133"/>
      <stop offset="1" stop-color="#e99315"/>
    </linearGradient>
    <linearGradient id="_未命名漸層_35" data-name="未命名漸層 35" x1="3.3" y1="746.1" x2="30.1" y2="746.1" gradientTransform="translate(0 -672)" gradientUnits="userSpaceOnUse">
      <stop offset="0" stop-color="#329dd1"/>
      <stop offset="1" stop-color="#15699d"/>
    </linearGradient>
  </defs>
  <g>
    <g class="st40">
      <path class="st0" d="M130.1,86l-42.7-21.1c-.8-.4-2.4-.4-3.4,0L16.8,97.1c-1,.5-1.2,1.1-.5,1.5l34,19.4c.7.4,2.3.4,3.4,0l75.8-30.5c1.1-.4,1.3-1.1.5-1.5h0Z"/>
      <path class="st4" d="M127.3,86.4l-41.2-20.3c-.8-.4-2.3-.4-3.3,0l-65.1,31.1c-1,.5-1.2,1.1-.5,1.5l33.3,19.1c.7.4,2.3.3,3.3,0l73.5-29.8c1-.4.9-1.3.1-1.6h-.1Z"/>
      <path class="st20" d="M124.5,86.9l-39.8-19.4c-.8-.4-2.3-.4-3.3,0l-63.1,30c-1,.4-1.2,1-.5,1.4l32.6,18.9c.7.4,2.2.3,3.3,0l71.1-29.2c1-.4.5-1.4-.3-1.8h0Z"/>
      <path class="st26" d="M121.6,87.3l-38.3-18.6c-.8-.4-2.3-.4-3.2,0l-61.1,28.9c-1,.4-1.2,1-.5,1.4l31.9,18.7c.7.4,2.2.3,3.2,0l68.7-28.5c1-.4,0-1.6-.7-2h0Z"/>
      <path class="st0" d="M118.8,87.8l-36.9-17.7c-.8-.3-2.2-.4-3.2,0l-59,27.8c-1,.4-1.1,1-.5,1.4l31.1,18.4c.7.4,2.2.3,3.2,0l66.3-27.8c.9-.4-.3-1.8-1.1-2.1h.1Z"/>
      <path class="st24" d="M116,88.2l-35.4-16.9c-.7-.3-2.2-.3-3.1,0l-57,26.7c-.9.4-1.1,1-.5,1.4l30.4,18.2c.6.4,2.2.3,3.1,0l64-27.1c.9-.4-.7-1.9-1.4-2.3h-.1Z"/>
      <path class="st11" d="M113.1,88.7l-34-16c-.7-.3-2.1-.3-3.1,0l-55,25.6c-.9.4-1.1,1-.5,1.3l29.7,18c.6.4,2.1.3,3,0l61.6-26.5c.9-.4-1.1-2.1-1.8-2.5h.1Z"/>
      <path class="st15" d="M110.3,89.1l-32.5-15.2c-.7-.3-2.1-.3-3,0l-52.9,24.5c-.9.4-1.1.9-.5,1.3l28.9,17.7c.6.4,2.1.3,3,0l59.2-25.8c.9-.4-1.5-2.3-2.2-2.6h0Z"/>
      <path class="st31" d="M107.5,89.6l-31.1-14.3c-.7-.3-2.1-.3-2.9,0l-50.9,23.4c-.9.4-1,.9-.4,1.3l28.2,17.5c.6.4,2.1.3,2.9,0l56.8-25.1c.8-.4-1.9-2.5-2.6-2.8h0Z"/>
      <path class="st19" d="M104.6,90l-29.6-13.5c-.7-.3-2-.3-2.9,0l-48.9,22.3c-.9.4-1,.9-.4,1.3l27.5,17.3c.6.4,2,.3,2.9,0l54.5-24.4c.8-.4-2.3-2.6-3-2.9h-.1Z"/>
      <path class="st12" d="M101.8,90.5l-28.2-12.6c-.7-.3-2-.3-2.8,0l-46.8,21.2c-.9.3-1,.9-.4,1.2l26.8,17c.5.4,2,.3,2.8,0l52.1-23.7c.8-.4-2.7-2.8-3.4-3.1h0Z"/>
      <path class="st10" d="M99,90.9l-26.7-11.8c-.7-.3-1.9-.3-2.8,0l-44.8,20.1c-.9.3-1,.9-.4,1.2l26,16.8c.5.4,2,.3,2.8,0l49.7-23.1c.8-.4-3.1-3-3.8-3.3h0Z"/>
      <path class="st2" d="M96.1,91.4l-25.3-10.9c-.7-.3-1.9-.3-2.7,0l-42.8,19c-.9.3-.9.8-.4,1.2l25.3,16.6c.5.4,1.9.3,2.7,0l47.3-22.4c.7-.4-3.5-3.2-4.2-3.4h.1Z"/>
      <path class="st8" d="M93.3,91.8l-23.8-10.1c-.7-.3-1.9-.3-2.7,0l-40.7,17.9c-.9.3-.9.8-.4,1.2l24.6,16.3c.5.4,1.9.3,2.7,0l45-21.7c.7-.4-3.9-3.3-4.6-3.6h0Z"/>
      <path class="st22" d="M90.5,92.3l-22.4-9.2c-.7-.3-1.8-.3-2.6,0l-38.7,16.8c-.9.3-.9.8-.4,1.2l23.8,16.1c.5.3,1.9.3,2.6,0l42.6-21c.7-.4-4.3-3.5-5-3.8h.1Z"/>
    </g>
    <g class="st37">
      <path class="st27" d="M87.6,92.7l-20.9-8.4c-.7-.3-1.8-.3-2.6,0l-36.7,15.7c-.9.3-.9.8-.4,1.1l23.1,15.9c.5.3,1.8.3,2.6,0l40.2-20.4c.7-.4-4.7-3.7-5.4-3.9h0Z"/>
      <path class="st14" d="M84.8,93.2l-19.5-7.5c-.7-.2-1.7-.3-2.5,0l-34.6,14.6c-.9.3-.9.8-.4,1.1l22.4,15.6c.4.3,1.8.3,2.5,0l37.8-19.7c.6-.4-5.1-3.8-5.7-4.1Z"/>
      <path class="st30" d="M83.8,94l-18.9-7.2c-.6-.2-1.7-.3-2.4,0l-33.4,13.9c-.8.3-.8.7-.4,1.1l21.6,15.1c.4.3,1.8.3,2.4,0l36.4-19c.6-.4-4.7-3.6-5.4-3.9h0Z"/>
      <path class="st21" d="M82.8,94.9l-18.3-7c-.6-.2-1.6-.2-2.3,0l-32.2,13.3c-.8.2-.8.7-.4,1l20.8,14.7c.4.3,1.7.3,2.3,0l35-18.4c.6-.4-4.4-3.4-5-3.6h.1Z"/>
      <path class="st28" d="M81.8,95.7l-17.7-6.7c-.6-.2-1.5-.2-2.2,0l-30.9,12.7c-.8.2-.8.7-.3,1l20.1,14.2c.4.3,1.6.3,2.2,0l33.6-17.8c.6-.3-4-3.2-4.6-3.4h-.2Z"/>
      <path class="st5" d="M80.8,96.6l-17.1-6.4c-.6-.2-1.5-.2-2.2,0l-29.7,12.1c-.7.2-.7.7-.3.9l19.3,13.7c.4.3,1.6.3,2.2,0l32.1-17.1c.5-.3-3.7-3-4.3-3.2h0Z"/>
      <path class="st16" d="M79.8,97.4l-16.5-6.1c-.5-.2-1.4-.2-2.1,0l-28.5,11.5c-.7.2-.7.6-.3.9l18.5,13.2c.3.3,1.5.3,2,0l30.7-16.5c.5-.3-3.3-2.8-3.9-2.9h0Z"/>
      <path class="st13" d="M78.8,98.3l-15.9-5.8c-.5-.2-1.3-.2-2,0l-27.3,10.9c-.7.2-.7.6-.3.9l17.7,12.7c.3.3,1.4.2,2,0l29.3-15.8c.5-.3-3-2.5-3.5-2.7v-.2Z"/>
      <path class="st7" d="M77.8,99.1l-15.3-5.6c-.5-.2-1.3-.2-1.9,0l-26,10.3c-.6.2-.6.6-.3.8l17,12.2c.3.3,1.4.2,1.9,0l27.8-15.2c.5-.3-2.7-2.3-3.2-2.5h0Z"/>
      <path class="st3" d="M76.8,100l-14.7-5.3c-.5-.2-1.2-.2-1.8,0l-24.8,9.7c-.6.2-.6.5-.3.8l16.2,11.7c.3.2,1.3.2,1.8,0l26.4-14.6c.4-.3-2.3-2.1-2.8-2.3h0Z"/>
      <path class="st9" d="M75.8,100.8l-14.1-5c-.5-.2-1.1-.2-1.7,0l-23.6,9.1c-.6.2-.6.5-.2.7l15.4,11.2c.3.2,1.2.2,1.7,0l25-13.9c.4-.2-2-1.9-2.4-2.1h-.1Z"/>
      <path class="st25" d="M74.8,101.7l-13.5-4.7c-.4-.2-1.1-.2-1.6,0l-22.4,8.4c-.5.2-.5.5-.2.7l14.6,10.7c.3.2,1.2.2,1.6,0l23.6-13.3c.4-.2-1.6-1.7-2.1-1.8Z"/>
      <path class="st18" d="M73.7,102.5l-12.9-4.5c-.4-.2-1-.2-1.5,0l-21.1,7.8c-.5.2-.5.5-.2.7l13.8,10.2c.2.2,1.1.2,1.5,0l22.2-12.6c.4-.2-1.3-1.4-1.7-1.6h-.1Z"/>
      <path class="st23" d="M72.7,103.4l-12.3-4.2c-.4,0-.9,0-1.4,0l-19.9,7.2c-.5.2-.5.4-.2.6l13.1,9.7c.2.2,1,.2,1.4,0l20.7-12c.3-.2-.9-1.2-1.3-1.4h0Z"/>
      <path class="st17" d="M71.7,104.2l-11.8-3.9c-.4,0-.9,0-1.3,0l-18.7,6.6c-.5,0-.4.4-.2.6l12.3,9.2c.2.2,1,.2,1.3,0l19.3-11.3c.3-.2-.6-1-1-1.1h0Z"/>
      <path class="st29" d="M70.7,105.1l-11.2-3.6c-.3,0-.8,0-1.2,0l-17.5,6c-.4,0-.4.4-.2.5l11.5,8.7c.2.2.9.2,1.2,0l17.9-10.7c.3-.2-.2-.8-.6-.9h0Z"/>
      <path class="st6" d="M69.7,105.9l-10.6-3.3c-.3,0-.7,0-1.2,0l-16.2,5.4c-.4,0-.4.3-.2.5l10.8,8.2c.2.2.8.2,1.1,0l16.5-10.1c.3-.2,0-.6-.2-.7h0Z"/>
      <path class="st1" d="M68.7,106.8l-10-3.1h-1.1l-15,4.8c-.4,0-.3.3-.2.5l10,7.7c.2.2.8.2,1,0l15-9.4c.2-.2.4-.4.2-.5h0Z"/>
    </g>
  </g>
  <g>
    <g>
      <polygon class="st38" points="61.8 71.1 51.7 80.5 51.7 80.5 61.8 71.1"/>
      <polygon class="st34" points="64.4 69.5 63.9 69.1 80.8 85.4 80.8 85.4 64.4 69.5"/>
    </g>
    <g>
      <polygon class="st35" points="61.8 71.1 51.7 80.5 51.7 80.5 61.8 71.1"/>
      <polygon class="st35" points="51.2 81 51.7 80.5 51.5 80.8 51.4 80.8 48 84.1 51.1 81.1 51.2 81"/>
      <polygon class="st32" points="51.7 80.5 48 84.1 51.1 81.1 51.7 80.5"/>
      <polygon class="st34" points="79.2 87 80.8 85.4 80.8 85.4 79.2 87"/>
      <polygon class="st32" points="61.8 71.1 51.7 80.5 51.7 80.5 51.2 81 51.1 81.1 48 84.1 48 86.1 52.3 81.8 52.3 81.8 52.5 81.6 62.8 72 62.3 71.5 61.8 71.1"/>
      <g>
        <polygon class="st39" points="59.6 69 52.4 62.2 52.4 75.8 59.6 69"/>
        <polygon class="st38" points="82.2 47.7 82.2 47.6 78.6 47.6 76 47.6 76 47.7 82.2 47.7"/>
        <rect class="st39" x="78.5" y="42.2" width="11.7" height="2.7"/>
        <path class="st39" d="M70.4,55.1v3.9l2.8-2.7h0v-.2h24.8v-1.7c0,0,0-.2-.1-.4h-26.6c-.6,0-1,.6-1.1,1.2h.2Z"/>
        <path class="st39" d="M52.4,43.4v9.7l11.6-10.9h-10.5c-.6,0-1.2.5-1.2,1.2h0Z"/>
        <polygon class="st39" points="62 66.8 65.9 63.1 65.9 46.4 53.1 58.4 62 66.8"/>
        <polygon class="st38" points="104.8 58.9 105.7 57.9 104.8 58.9 104.8 58.9"/>
        <path class="st39" d="M102.6,56h4.9l5.9-6.5h0s.1-.2.1-.4,0-.3-.2-.4l-7.2-6.5h-3.6v13.8h.1Z"/>
        <path class="st39" d="M94.6,48.3h-8.1v2.3h11.5v-8c0,0,0-.3-.1-.4h-3.4v6.1h.1Z"/>
        <polygon class="st39" points="30.1 42.9 27.4 42.9 20.4 50.6 30.1 50.6 30.1 42.9"/>
        <path class="st38" d="M30.1,94.2h0L3.5,70h0c0-.2,0-.3,0-.4v-.3h0c0,0,13.8-15.3,13.8-15.3h0l-13.8,15.2h0v.4c0,0,0,.2,0,.3h0l29.8,27.1h0l-3.2-2.9h0Z"/>
        <path class="st39" d="M38.9,102.2v-48.2h-3.1c-.7,0-1.3.6-1.3,1.3v42.9l7.5,6.8h0l-3.2-2.9h0Z"/>
        <polygon class="st38" points="35.8 53.3 35.8 53.3 35.9 53.3 35.8 53.3"/>
        <polygon class="st38" points="104.8 58.9 74.8 58.9 63.9 69.1 64.4 69.5 80.8 85.4 104.8 58.9 104.8 58.9 104.8 58.9"/>
        <path class="st38" d="M17.3,54l-13.8,15.2h0v.4c0,0,0,.2,0,.3h0l26.6,24.3v-40.2h-12.8Z"/>
        <polygon class="st34" points="104.8 58.9 104.8 58.9 74.7 58.9 63.9 69.1 74.8 58.9 104.8 58.9"/>
        <polygon class="st35" points="78.5 44.9 90.2 44.9 90.2 42.2 90.2 41.5 90.2 41.5 77.3 41.5 77.3 44.9 77.9 44.9 78.5 44.9"/>
        <path class="st35" d="M70.4,50.6h11.8v-3h-8.1v-6.1h-4c-.2,0-.3,0-.5.2-.3.2-.5.5-.6,1h0v7.9h1.4Z"/>
        <path class="st35" d="M52.4,53.1l11.6-10.9.7-.7h-12.5c-.2,0-.3,0-.5.2-.3.2-.5.5-.6,1v11.6l.6-.5.7-.6h0Z"/>
        <polygon class="st35" points="52.4 58.2 61.8 67 62 66.8 65.9 63.1 65.9 46.4 65.9 45.4 65.9 44.5 51.9 57.7 52.4 58.2"/>
        <path class="st35" d="M98,42.2c-.2-.3-.5-.6-.9-.7h-3.7v6.1h-8v3h12.8v-8c0,0,0-.3-.1-.4h0Z"/>
        <path class="st35" d="M98,53.9c-.2-.3-.5-.5-.8-.6h-27.1c-.2,0-.3,0-.4.2-.3.2-.5.5-.6,1h0v5.7l.6-.5.7-.6,2.8-2.7h0v-.2h24.8v-1.7c0,0,0-.2-.1-.4h0v-.2Z"/>
        <polygon class="st35" points="51.7 61.6 51.2 61.1 51.2 77 51.7 76.4 52.4 75.8 59.6 69 52.4 62.2 51.7 61.6"/>
        <path class="st39" d="M62.8,72l-10.2,9.6-.2.2h0l-4.3,4.3v-43.8h-12.2c-.7,0-1.2.6-1.2,1.3v7.1h7.5v.7h1.2v54.9l9.8,8.9s.2,0,.4,0,.3,0,.3-.2l25.4-28-.4.5-16-15.5h-.1Z"/>
        <polygon class="st33" points="104.8 58.9 74.8 58.9 63.9 69.1 64.4 69.5 80.8 85.4 104.8 58.9 104.8 58.9 104.8 58.9"/>
        <path class="st36" d="M17.3,54l-13.8,15.2h0v.4c0,0,0,.2,0,.3h0l26.6,24.3v-40.2h-12.8Z"/>
        <polygon class="st34" points="80.8 85.4 80.8 85.4 80.8 85.4 104.8 58.9 104.8 58.9 80.8 85.4 80.8 85.4"/>
        <rect class="st34" x="19.2" y="50.1" height="3.7"/>
        <polygon class="st34" points="107.5 56 107.5 56 105.7 57.9 107.5 56"/>
        <rect class="st34" x="104" y="38.2" height="3.9"/>
        <polygon class="st34" points="28 42.2 28 42.2 28 42.2 28 42.2"/>
        <path class="st39" d="M82.1,47.7h-8v-5.4h-2.6c-.6,0-1.1.5-1.2,1.2v7.2h11.8v-2.9h0Z"/>
        <polygon class="st41" points="30.1 54 30.1 53.3 17.9 53.3 17.3 54 17.3 54 30.1 54"/>
        <polygon class="st41" points="52.4 58.2 61.8 67 62 66.8 53.1 58.4 65.9 46.4 65.9 45.4 65.9 44.5 51.9 57.7 52.4 58.2"/>
        <polygon class="st41" points="52.4 75.8 52.4 62.2 51.7 61.6 51.2 61.1 51.2 77 51.7 76.4 52.4 75.8"/>
        <path class="st39" d="M102.5,38.9L63.8,3.7h0c0-.2-.2-.2-.3-.2h0c0,0-.2,0-.3,0h0l-10.6,11.7v23.5h50.1-.1Z"/>
        <polygon class="st39" points="48 38.9 48 20.2 34.5 35 34.5 38.9 48 38.9"/>
        <polygon class="st38" points="51.2 16.7 49.8 18.3 51.2 16.7 51.2 16.7"/>
        <path class="st34" d="M102.6,56h-1.2v-3.9h0v-5h0v-5.6h4.1l-2.9-2.6h-51.3v-22.1l-1.4,1.6-1.8,2v18.6h-14.7v-2.5l-5.2,5.8h2.1v8.4h-9.7l-2.5,2.7h12.2v40.9h0l3.2,2.9v-42.5h0c0-.4.2-.7.6-1,.2,0,.3-.2.5-.2h4.5v48.8l3.2,2.9v-54.4h-8.8v-7.8h0c0-.4.2-.7.6-.9.2,0,.3-.2.5-.2h13.6v42.5l3.4-3.3h0l.3-.2,10-9.4.5.4.5.5,16,15.5.4-.5,1.6-1.7-16.8-16.3,10.8-10.2h30.1l.9-1,1.7-1.9h-4.9v-.3ZM97,41.5h-1.8,1.8ZM77.3,41.5h12.9v3.4h-12.9v-3.4ZM69.1,47.1v-4.4h0c0-.4.3-.7.6-1,.2,0,.3-.2.5-.2h4v6.1h8.1v3h-13.1v-3.5h-.1ZM51.2,47.1v-4.4c0-.4.2-.8.6-1,0,0,.3-.2.5-.2h12.5l-.7.7-11.6,10.9-.7.6-.6.5v-7.2h0ZM52.4,75.8l-.7.6-.6.5v-15.9l.6.5.7.6,7.2,6.8-7.2,6.8h0ZM65.9,45.4v17.7l-3.9,3.6-.2.2-9.4-8.9-.5-.5,14-13.2v.9h0v.2ZM98.1,56h-24.7v.2h0l-2.8,2.8-.7.6-.6.5v-5.7h0c0-.4.3-.8.6-1,0,0,.2,0,.4-.2h27.1c.3,0,.6.3.8.6h0c0,0,0,.2.1.4v1.7h-.1ZM98.1,50.6h-12.8v-3h8v-6.1h3.7c.4,0,.7.3.9.7h0c0,0,.1.3.1.4v8h0Z"/>
        <polygon class="st34" points="48 20.2 48 20.2 49.8 18.3 48 20.2"/>
        <rect class="st34" x="30.7" y="35.4" height="7.8"/>
        <path class="st34" d="M115.7,46.2L66.2,1.1h0c-.8-.8-1.9-1.2-2.9-1.1-1,0-2,.4-2.7,1.2h0c0,.1-59.5,65.6-59.5,65.6h0c-.7.8-1.1,1.9-1,2.9,0,1,.4,1.9,1.2,2.7h0l49.6,45.1c.8.8,1.9,1.1,2.9,1.1s2-.5,2.8-1.3l59.6-65.6h0c.7-.8,1.1-1.9,1-2.9,0-1-.5-2-1.3-2.8h0v.2ZM106.2,42.2l7.2,6.5c.1,0,.2.2.2.4s0,.3-.1.4h0l-5.9,6.5-1.7,1.9-.9,1h0l-24,26.5h0l-1.6,1.7-25.4,28s-.2.2-.3.2-.3,0-.4,0l-9.8-8.9-1.2-1.1-7.5-6.8-1.2-1.1L3.9,70.2h0c0-.2,0-.3,0-.4v-.3h0c0,0,13.8-15.3,13.8-15.3l.6-.7,2.5-2.7h0l7-7.7.6-.7,5.2-5.8,1.2-1.4,13.4-14.8h0l1.8-2,1.4-1.6,1.2-1.4,10.6-11.6h0c0-.2.2-.2.3-.2h.4c0,0,38.7,35.3,38.7,35.3l2.9,2.6.8.7h0Z"/>
        <polygon class="st41" points="33.3 38.9 33.9 38.9 34.5 38.9 34.5 35 33.3 36.4 33.3 38.9"/>
        <polygon class="st41" points="51.2 38.9 51.7 38.9 52.4 38.9 52.4 15.4 51.2 16.7 51.2 16.7 51.2 38.9"/>
        <polygon class="st41" points="101.3 41.5 101.3 56 101.9 56 102.6 56 102.6 42.2 106.2 42.2 105.4 41.5 101.3 41.5"/>
        <polygon class="st41" points="78.5 44.9 78.5 42.2 90.2 42.2 90.2 41.5 90.2 41.5 77.3 41.5 77.3 44.9 77.9 44.9 78.5 44.9"/>
        <polygon class="st41" points="42.1 51.3 42.1 52 42.1 105 42.1 105 43.3 106.2 43.3 51.3 42.1 51.3"/>
        <path class="st41" d="M35.8,42.2h12.2v-.7h-13.6c-.2,0-.3,0-.5.2-.3.2-.5.5-.6.9h0v7.8h1.2v-7.1c0-.7.5-1.2,1.2-1.3v.2Z"/>
        <path class="st41" d="M34.5,55.3c0-.7.6-1.3,1.3-1.3h3.1v-.7h-4.5c-.2,0-.4,0-.5.2-.3.2-.5.6-.6,1h0v42.5h0l1.2,1.1v-42.9h0Z"/>
        <path class="st41" d="M52.4,53.1v-9.7c0-.6.5-1.1,1.2-1.2h10.4l.7-.7h-12.5c-.2,0-.3,0-.5.2-.3.2-.5.5-.6,1v11.6l.6-.5.7-.6h0Z"/>
        <path class="st41" d="M70.4,50.6v-7.2c0-.6.5-1.1,1.2-1.2h2.6v-.7h-4c-.2,0-.3,0-.5.2-.3.2-.5.5-.6,1h0v7.9h1.3Z"/>
        <path class="st41" d="M85.3,50.6h1.2v-2.3h8.1v-6.1h3.4c-.2-.4-.6-.6-1-.7h-3.6v6.1h-8v3h0Z"/>
        <path class="st41" d="M70.4,59v-3.9c0-.6.5-1,1.1-1.2h26.6c-.2-.3-.5-.5-.8-.6h-27.1c-.2,0-.3,0-.4.2-.3.2-.5.5-.6,1h0v5.7l.6-.5.7-.6h0Z"/>
        <polygon class="st41" points="28 42.2 28 42.2 27.4 42.9 30.1 42.9 30.1 42.2 30.1 42.2 28 42.2"/>
        <rect class="st32" x="75.3" y="47.7" width="6.8" height=".7"/>
      </g>
    </g>
  </g>
</svg>