<?xml version="1.0" encoding="UTF-8"?>
<svg id="_圖層_1" data-name="圖層_1" xmlns="http://www.w3.org/2000/svg" version="1.1" viewBox="0 0 448 512.1">
  <!-- Generator: Adobe Illustrator 30.5.1, SVG Export Plug-In . SVG Version: 2.1.4 Build 3)  -->
  <path d="M224,0c-13.3,0-24,10.7-24,24v9.7C118.6,45.4,56,115.5,56,200.1v14.5c0,37.7-10,74.7-29,107.3l-21.9,37.4c-3.3,5.8-5.1,12.3-5.1,19,0,20.9,16.9,37.8,37.8,37.8h372.4c20.9,0,37.8-16.9,37.8-37.8s-1.8-13.3-5.1-19l-21.9-37.5c-19-32.6-29-69.6-29-107.3v-14.5c0-84.6-62.6-154.7-144-166.3v-9.7c0-13.3-10.7-24-24-24h0ZM392.4,368.1H55.5l12.9-22.1c23.3-39.9,35.6-85.3,35.6-131.4v-14.5c0-66.3,53.7-120,120-120s120,53.7,120,120v14.5c0,46.2,12.3,91.5,35.5,131.4l12.9,22.1ZM156.1,464.1c9.9,28,36.6,48,67.9,48s58-20,67.9-48h-135.8Z"/>
</svg>