<?xml version="1.0" encoding="UTF-8"?>
<svg id="_圖層_1" data-name="圖層_1" xmlns="http://www.w3.org/2000/svg" version="1.1" viewBox="0 0 512 448">
  <!-- Generator: Adobe Illustrator 30.5.1, SVG Export Plug-In . SVG Version: 2.1.4 Build 3)  -->
  <defs>
    <style>
      .st0 {
        fill: #fff;
      }
    </style>
  </defs>
  <path class="st0" d="M64,32C64,14.3,49.7,0,32,0S0,14.3,0,32v336c0,44.2,35.8,80,80,80h400c17.7,0,32-14.3,32-32s-14.3-32-32-32H80c-8.8,0-16-7.2-16-16V32ZM470.6,118.6c12.5-12.5,12.5-32.8,0-45.3s-32.8-12.5-45.3,0l-105.3,105.4-57.4-57.3c-12.5-12.5-32.8-12.5-45.3,0l-96,96c-12.5,12.5-12.5,32.8,0,45.3s32.8,12.5,45.3,0l73.4-73.4,57.4,57.4c12.5,12.5,32.8,12.5,45.3,0l128-128h-.1Z"/>
</svg>