<?xml version="1.0" encoding="UTF-8"?>
<svg id="_圖層_1" data-name="圖層_1" xmlns="http://www.w3.org/2000/svg" version="1.1" viewBox="0 0 18 22">
  <!-- Generator: Adobe Illustrator 30.5.1, SVG Export Plug-In . SVG Version: 2.1.4 Build 3)  -->
  <defs>
    <style>
      .st0 {
        fill: none;
        stroke: #fff;
        stroke-linecap: round;
        stroke-linejoin: round;
        stroke-width: 2px;
      }
    </style>
  </defs>
  <path class="st0" d="M13,3h2c1.1,0,2,.9,2,2v14c0,1.1-.9,2-2,2H3c-1.1,0-2-.9-2-2V5c0-1.1.9-2,2-2h2"/>
  <path class="st0" d="M12,1h-6c-.6,0-1,.4-1,1v2c0,.6.4,1,1,1h6c.6,0,1-.4,1-1v-2c0-.6-.4-1-1-1Z"/>
  <path class="st0" d="M9,10h4"/>
  <path class="st0" d="M9,15h4"/>
  <path class="st0" d="M5,10h0"/>
  <path class="st0" d="M5,15h0"/>
</svg>