<?xml version="1.0" encoding="UTF-8"?>
<svg id="icon" xmlns="http://www.w3.org/2000/svg" version="1.1" viewBox="0 0 800 800">
  <!-- Generator: Adobe Illustrator 30.5.1, SVG Export Plug-In . SVG Version: 2.1.4 Build 3)  -->
  <defs>
    <style>
      .st0 {
        fill: none;
      }

      .st1 {
        fill: #45af89;
      }
    </style>
  </defs>
  <path class="st1" d="M775,739.6l-117.2-117.2c68-87.5,52.2-213.6-35.3-281.6s-213.6-52.2-281.6,35.3-52.2,213.6,35.3,281.6c72.4,56.3,173.8,56.3,246.3,0l117.2,117.2,35.4-35.4ZM500,650c-82.8,0-150-67.2-150-150s67.2-150,150-150,150,67.2,150,150c0,82.8-67.2,149.9-150,150Z"/>
  <path class="st1" d="M200,650h-100c-27.6,0-50-22.4-50-50v-100h50v100h100v50Z"/>
  <rect class="st1" x="50" y="300" width="50" height="100"/>
  <path class="st1" d="M650,200h-50v-100h-100v-50h100c27.6,0,50,22.4,50,50v100Z"/>
  <rect class="st1" x="300" y="50" width="100" height="50"/>
  <path class="st1" d="M100,200h-50v-100c0-27.6,22.4-50,50-50h100v50h-100v100Z"/>
  <rect id="_Transparent_Rectangle_" class="st0" width="800" height="800"/>
</svg>