<?xml version="1.0" encoding="UTF-8"?>
<svg id="_圖層_1" data-name="圖層_1" xmlns="http://www.w3.org/2000/svg" version="1.1" viewBox="0 0 766.7 738.2">
  <!-- Generator: Adobe Illustrator 30.5.1, SVG Export Plug-In . SVG Version: 2.1.4 Build 3)  -->
  <defs>
    <style>
      .st0, .st1 {
        fill: #fff;
      }

      .st1 {
        fill-rule: evenodd;
      }
    </style>
  </defs>
  <path class="st0" d="M633.3,471.6c18.4,0,33.3-14.9,33.3-33.3s-14.9-33.3-33.3-33.3-33.3,14.9-33.3,33.3,14.9,33.3,33.3,33.3Z"/>
  <path class="st1" d="M525.8,4.4c57.2-17.5,116.9,18.9,127.6,77.7l11.1,61c39.9,13.1,68.8,50.7,68.8,95v92.1c20.5,18.3,33.3,44.9,33.3,74.5v66.7c0,29.6-12.9,56.2-33.3,74.5v92.1c0,55.2-44.8,100-100,100H100c-55.2,0-100-44.8-100-100V238.2c0-49.6,36.1-90.7,83.4-98.6L525.8,4.4ZM666.7,504.9c18.4,0,33.3-14.9,33.3-33.3v-66.7c0-18.4-14.9-33.3-33.3-33.3h-100c-18.4,0-33.3,14.9-33.3,33.3v66.7c0,18.4,14.9,33.3,33.3,33.3h100ZM666.7,571.6v66.7c0,18.4-14.9,33.3-33.3,33.3H100c-18.4,0-33.3-14.9-33.3-33.3V238.2c0-18.4,14.9-33.3,33.3-33.3h533.3c18.3,0,33.2,14.8,33.3,33.1v66.9h-100c-55.2,0-100,44.8-100,100v66.7c0,55.2,44.8,100,100,100h100ZM589.8,91.8l8.2,46.4h-298l247.4-72.6c19.1-5.7,38.9,6.5,42.4,26.1Z"/>
</svg>