<?xml version="1.0" encoding="UTF-8"?>
<svg id="icon" xmlns="http://www.w3.org/2000/svg" version="1.1" viewBox="0 0 625 700">
  <!-- Generator: Adobe Illustrator 30.5.1, SVG Export Plug-In . SVG Version: 2.1.4 Build 3)  -->
  <defs>
    <style>
      .st0 {
        fill: none;
      }

      .st1 {
        fill: #45af89;
      }
    </style>
  </defs>
  <circle class="st1" cx="425" cy="550" r="50"/>
  <path id="_inner_path_" class="st0" d="M425,650c-55.2,0-100-44.8-100-100s44.8-100,100-100,100,44.8,100,100c0,55.2-44.8,99.9-100,100ZM425,500c-27.6,0-50,22.4-50,50s22.4,50,50,50,50-22.4,50-50c0-27.6-22.4-50-50-50Z"/>
  <path class="st1" d="M619.4,537c-31.6-80.4-108.1-134.3-194.4-137-86.4,2.7-162.8,56.5-194.4,137l-5.6,13,5.6,13c31.6,80.4,108.1,134.3,194.4,137,86.4-2.7,162.8-56.5,194.4-137l5.6-13-5.6-13ZM425,650c-55.2,0-100-44.8-100-100s44.8-100,100-100,100,44.8,100,100c0,55.2-44.8,99.9-100,100Z"/>
  <path class="st1" d="M175,650H50V125h75v75h300v-75h75v225h50V125c0-27.6-22.4-50-50-50h-75v-25c0-27.6-22.4-50-50-50h-200c-27.6,0-50,22.4-50,50v25H50C22.4,75,0,97.4,0,125v525c0,27.6,22.4,50,50,50h125v-50ZM175,50h200v100h-200V50Z"/>
</svg>