<?xml version="1.0" encoding="UTF-8"?>
<svg id="_圖層_1" data-name="圖層_1" xmlns="http://www.w3.org/2000/svg" version="1.1" viewBox="0 0 384 512">
  <!-- Generator: Adobe Illustrator 30.5.1, SVG Export Plug-In . SVG Version: 2.1.4 Build 3)  -->
  <defs>
    <style>
      .st0 {
        fill: #fff;
      }
    </style>
  </defs>
  <path class="st0" d="M64,48h112v88c0,39.8,32.2,72,72,72h88v240c0,8.8-7.2,16-16,16H64c-8.8,0-16-7.2-16-16V64c0-8.8,7.2-16,16-16ZM224,67.9l92.1,92.1h-68.1c-13.3,0-24-10.7-24-24v-68.1ZM64,0C28.7,0,0,28.7,0,64v384c0,35.3,28.7,64,64,64h256c35.3,0,64-28.7,64-64V186.5c0-17-6.7-33.3-18.7-45.3L242.7,18.7C230.7,6.7,214.5,0,197.5,0H64ZM120,256c-13.3,0-24,10.7-24,24s10.7,24,24,24h144c13.3,0,24-10.7,24-24s-10.7-24-24-24H120ZM120,352c-13.3,0-24,10.7-24,24s10.7,24,24,24h144c13.3,0,24-10.7,24-24s-10.7-24-24-24H120Z"/>
</svg>