<?xml version="1.0" encoding="UTF-8"?>
<svg id="_圖層_1" data-name="圖層_1" xmlns="http://www.w3.org/2000/svg" version="1.1" viewBox="0 0 448 512">
  <!-- Generator: Adobe Illustrator 30.5.1, SVG Export Plug-In . SVG Version: 2.1.4 Build 3)  -->
  <path d="M144,128c0-44.2,35.8-80,80-80s80,35.8,80,80-35.8,80-80,80-80-35.8-80-80ZM352,128C352,57.3,294.7,0,224,0S96,57.3,96,128s57.3,128,128,128,128-57.3,128-128ZM48,480c0-70.7,57.3-128,128-128h96c70.7,0,128,57.3,128,128v8c0,13.3,10.7,24,24,24s24-10.7,24-24v-8c0-97.2-78.8-176-176-176h-96C78.8,304,0,382.8,0,480v8c0,13.3,10.7,24,24,24s24-10.7,24-24v-8Z"/>
</svg>